<svg width="26" height="24" viewBox="0 0 26 24" fill="none" xmlns="http://www.w3.org/2000/svg">
<path d="M3.2 4.7998H22.4L25.6 23.9998H0L3.2 4.7998Z" fill="#0D0914"/>
<path d="M12.7998 0.799805C13.817 0.799805 14.7988 1.34799 15.5537 2.35449C16.3089 3.36137 16.7998 4.78944 16.7998 6.40039C16.7997 8.01118 16.3088 9.43852 15.5537 10.4453C14.7987 11.4519 13.817 12 12.7998 12C11.7827 11.9999 10.8008 11.4519 10.0459 10.4453C9.29085 9.43852 8.79988 8.01113 8.7998 6.40039C8.7998 4.78944 9.29074 3.36137 10.0459 2.35449C10.8008 1.34794 11.7827 0.799875 12.7998 0.799805Z" stroke="#0D0914" stroke-width="1.6"/>
</svg>
